<?xml version="1.0" encoding="UTF-8"?>
<svg version="1.1" xmlns="http://www.w3.org/2000/svg" width="1024" height="1024">
<path d="M0 0 C1.08062493 -0.00424107 1.08062493 -0.00424107 2.18308067 -0.00856781 C6.01308919 -0.02345573 9.8430612 -0.03274462 13.6730957 -0.03710938 C16.76078418 -0.04144613 19.84818566 -0.05516391 22.93579102 -0.078125 C54.60823541 -0.3086012 85.3875945 2.28818618 116.54296875 8.203125 C117.70747559 8.42339355 118.87198242 8.64366211 120.07177734 8.87060547 C192.78342342 22.90732727 263.34856839 53.65112106 322.54296875 98.203125 C323.63496582 99.01910156 323.63496582 99.01910156 324.74902344 99.8515625 C333.71849721 106.56389597 342.45511365 113.48223107 350.92626953 120.81298828 C352.63004017 122.27799433 354.34847291 123.72425441 356.0703125 125.16796875 C362.72684243 130.77061584 369.02830706 136.54724838 375.109375 142.76953125 C377.12686238 144.78701863 379.16421174 146.63248228 381.35546875 148.453125 C387.97453643 154.10520954 393.67928244 160.79026639 399.54296875 167.203125 C400.39632812 168.12996094 401.2496875 169.05679688 402.12890625 170.01171875 C407.49548802 175.89612858 412.55127157 181.99938633 417.54296875 188.203125 C418.5036188 189.38304659 419.46457099 190.56272224 420.42578125 191.7421875 C427.13393237 200.00536574 433.52524716 208.4222646 439.54296875 217.203125 C440.13094238 218.0605127 440.71891602 218.91790039 441.32470703 219.80126953 C486.05429449 285.32589538 515.48335886 358.72578419 527.23046875 437.328125 C527.33329163 438.00730988 527.4361145 438.68649475 527.54205322 439.38626099 C528.28170378 444.31679163 528.93748483 449.2543929 529.54296875 454.203125 C529.68600937 455.34315979 529.68600937 455.34315979 529.8319397 456.50622559 C531.88018905 473.43229422 531.88528283 490.38256283 531.85864258 507.40380859 C531.85402763 510.58917423 531.86088775 513.77415651 531.87915039 516.95947266 C532.03264823 544.02775922 530.44065509 570.54172373 525.79296875 597.265625 C525.66735565 598.00463043 525.54174255 598.74363586 525.412323 599.5050354 C522.83824081 614.58677059 519.45947762 629.41054003 515.54296875 644.203125 C515.11564453 645.83580322 515.11564453 645.83580322 514.6796875 647.50146484 C505.6247991 681.84491997 492.44813549 714.48177148 476.54296875 746.203125 C476.12337891 747.04488281 475.70378906 747.88664063 475.27148438 748.75390625 C463.72340787 771.77567551 449.69842278 793.41170269 434.54296875 814.203125 C434.07342773 814.84830078 433.60388672 815.49347656 433.12011719 816.15820312 C426.00835378 825.89109138 418.50242399 835.1535837 410.54296875 844.203125 C409.88554688 844.96109375 409.228125 845.7190625 408.55078125 846.5 C406.89221014 848.41079621 405.22102614 850.3094294 403.54296875 852.203125 C402.929375 852.89792969 402.31578125 853.59273437 401.68359375 854.30859375 C396.58613715 860.0288599 391.38586827 865.65528804 386.16796875 871.265625 C385.46551025 872.02866943 384.76305176 872.79171387 384.03930664 873.57788086 C383.37278076 874.29081299 382.70625488 875.00374512 382.01953125 875.73828125 C381.42221191 876.381604 380.82489258 877.02492676 380.20947266 877.68774414 C378.54296875 879.203125 378.54296875 879.203125 375.54296875 880.203125 C375.54296875 880.863125 375.54296875 881.523125 375.54296875 882.203125 C374.25 883.5078125 374.25 883.5078125 372.35546875 885.078125 C369.12264727 887.81974039 365.98377199 890.63088069 362.88964844 893.52612305 C356.64917938 899.36347763 350.24079521 904.89073935 343.54296875 910.203125 C342.48816091 911.05063149 341.4334785 911.89829412 340.37890625 912.74609375 C321.40433887 927.91356494 301.39855929 941.82227386 280.42919922 954.08789062 C278.48675704 955.23636019 276.56301439 956.41205853 274.640625 957.59375 C263.84550212 964.17363442 252.64174875 969.6400633 241.18212891 974.96289062 C238.93534188 976.01873504 236.71004092 977.10388715 234.4921875 978.21875 C175.65336653 1007.53123635 105.22706727 1024.23408779 39.578125 1024.40625 C38.83314695 1024.40907738 38.08816891 1024.41190475 37.32061577 1024.41481781 C33.36323589 1024.42970579 29.40589136 1024.43899573 25.44848633 1024.44335938 C22.25012558 1024.44770465 19.0520406 1024.46145653 15.85375977 1024.484375 C-5.13709252 1024.63156626 -25.60328964 1023.86317989 -46.45703125 1021.203125 C-47.34941498 1021.09188293 -48.24179871 1020.98064087 -49.16122437 1020.86602783 C-54.23551609 1020.22242954 -59.28589577 1019.47571216 -64.33203125 1018.640625 C-65.45495071 1018.45696381 -65.45495071 1018.45696381 -66.60055542 1018.26959229 C-154.22157084 1003.74729916 -239.67196073 965.05501029 -311.90478516 903.54492188 C-313.57962655 902.09715083 -315.27224358 900.67230955 -316.96875 899.25 C-323.7527687 893.54152998 -330.18255214 887.66001982 -336.34765625 881.28515625 C-338.28044549 879.1622378 -338.28044549 879.1622378 -340.45703125 878.203125 C-340.45703125 877.543125 -340.45703125 876.883125 -340.45703125 876.203125 C-341.44703125 875.873125 -342.43703125 875.543125 -343.45703125 875.203125 C-343.45703125 874.543125 -343.45703125 873.883125 -343.45703125 873.203125 C-344.44703125 872.873125 -345.43703125 872.543125 -346.45703125 872.203125 C-348 870.63671875 -348 870.63671875 -349.64453125 868.640625 C-352.14029337 865.69299858 -354.69922222 862.90738434 -357.45703125 860.203125 C-361.33714049 856.36752944 -364.91987417 852.35451894 -368.45703125 848.203125 C-369.25753906 847.28015625 -370.05804688 846.3571875 -370.8828125 845.40625 C-387.64748267 825.97074535 -402.94614794 805.02125017 -416.45703125 783.203125 C-416.95138672 782.40519531 -417.44574219 781.60726562 -417.95507812 780.78515625 C-437.50407952 748.98413254 -453.14658576 715.43665023 -465.45703125 680.203125 C-465.98441895 678.69709717 -465.98441895 678.69709717 -466.52246094 677.16064453 C-482.49762735 630.92438537 -492.52736217 580.67737785 -492.66015625 531.7109375 C-492.66298363 530.98927273 -492.665811 530.26760796 -492.66872406 529.52407455 C-492.68361007 525.68873501 -492.69290062 521.8534319 -492.69726562 518.01806641 C-492.70160577 514.92354249 -492.71533746 511.8293044 -492.73828125 508.73486328 C-492.93520526 481.58361974 -491.41161839 454.9394151 -486.70703125 428.140625 C-486.58108582 427.40506378 -486.45514038 426.66950256 -486.32537842 425.91165161 C-473.4917381 351.16200532 -444.67063715 278.98004426 -400.45703125 217.203125 C-399.90901855 216.43726074 -399.36100586 215.67139648 -398.79638672 214.88232422 C-392.17034737 205.66726586 -385.39761979 196.66786383 -377.953125 188.09765625 C-375.63541439 185.40998244 -373.41622932 182.66754995 -371.20703125 179.890625 C-361.12929353 167.57534762 -349.74458594 156.39728916 -338.51953125 145.140625 C-337.98150879 144.59992371 -337.44348633 144.05922241 -336.88916016 143.50213623 C-330.92575165 137.51620799 -324.90691087 131.66968732 -318.45703125 126.203125 C-317.37358931 125.25421244 -316.29150888 124.30374261 -315.2109375 123.3515625 C-306.26797515 115.55081734 -296.97901564 108.2819548 -287.45703125 101.203125 C-286.73499512 100.6654248 -286.01295898 100.12772461 -285.26904297 99.57373047 C-210.41430629 44.07078665 -121.24553713 9.86997171 0 0 Z M-273.45703125 271.203125 C-276.59044447 274.7708183 -279.53862978 278.45823223 -282.45703125 282.203125 C-282.94961426 282.82993164 -283.44219727 283.45673828 -283.94970703 284.10253906 C-325.50700065 337.07639372 -355.09402592 405.6331641 -347.58374023 474.21264648 C-341.71293593 522.76568195 -317.07144202 567.32793392 -278.5390625 597.8671875 C-221.41923584 641.1595276 -161.38394992 647.93670219 -91.70703125 644.328125 C-90.93018982 644.28901001 -90.15334839 644.24989502 -89.35296631 644.20959473 C-79.61872665 643.70406164 -70.08749845 642.76352873 -60.45703125 641.203125 C-61.04757987 636.48546384 -61.95394815 632.06982508 -63.28515625 627.5078125 C-63.67093199 626.16486333 -64.05615577 624.82175553 -64.44091797 623.47851562 C-64.6465033 622.76542236 -64.85208862 622.0523291 -65.06390381 621.31762695 C-69.88081393 604.54415575 -74.1731232 587.65033373 -78.33203125 570.703125 C-78.60825317 569.58403748 -78.8844751 568.46494995 -79.16906738 567.31195068 C-89.23800022 526.4555211 -89.23800022 526.4555211 -88.95703125 513.640625 C-88.94639648 512.72224854 -88.93576172 511.80387207 -88.92480469 510.85766602 C-88.67793612 502.06336381 -87.08855924 493.4856252 -80.45703125 487.203125 C-64.58363513 473.78596039 -43.22742791 474.07265633 -23.45703125 473.203125 C-24.1122295 469.29037276 -25.27548593 465.86433201 -26.765625 462.19140625 C-27.25619385 460.9801709 -27.7467627 459.76893555 -28.25219727 458.52099609 C-28.79932246 457.18574145 -29.34677807 455.85062215 -29.89453125 454.515625 C-30.31495193 453.4844455 -30.31495193 453.4844455 -30.74386597 452.43243408 C-35.84863839 439.91468776 -41.16961524 427.49262146 -46.51953125 415.078125 C-96.46058784 299.116836 -96.46058784 299.116836 -85.95703125 266.828125 C-81.54269027 257.21116787 -71.95011685 251.90774377 -62.45703125 248.203125 C-42.75667805 241.79550426 -21.93807308 240.98988219 -1.39453125 241.015625 C-0.16855728 241.01603287 -0.16855728 241.01603287 1.08218384 241.01644897 C13.34813085 241.03520126 25.38924435 241.43439172 37.54296875 243.203125 C38.99217009 243.38815725 40.441389 243.57305193 41.890625 243.7578125 C81.29252633 249.18017287 121.48032039 267.33067864 146.17724609 299.33740234 C159.65371345 317.74769257 166.50546178 338.44281594 167.54296875 361.203125 C167.58421875 361.98429688 167.62546875 362.76546875 167.66796875 363.5703125 C168.33636495 388.38452158 160.29850779 411.076998 144.54296875 430.203125 C143.81722656 431.10546875 143.09148437 432.0078125 142.34375 432.9375 C107.56312448 473.80030621 48.55185247 481.30710773 -1.45703125 486.203125 C-0.87501786 491.94734408 0.61503473 497.31034148 2.17163086 502.86206055 C5.65181139 515.28141819 8.62614345 527.70795991 10.98046875 540.390625 C11.10561859 541.05649628 11.23076843 541.72236755 11.35971069 542.40841675 C16.24241482 568.5796298 18.27032234 599.71820116 3.1015625 623.08203125 C0.75204365 626.27949675 -1.84505567 629.21801006 -4.45703125 632.203125 C-4.45703125 632.863125 -4.45703125 633.523125 -4.45703125 634.203125 C-5.03582031 634.46609375 -5.61460937 634.7290625 -6.2109375 635 C-8.57016551 636.26372561 -10.36000297 637.71928516 -12.39453125 639.453125 C-20.6251933 645.96455336 -30.74780897 649.44897463 -40.45703125 653.203125 C-39.2638476 659.70263199 -37.75551483 665.97674295 -35.76953125 672.27734375 C-35.51088287 673.11152832 -35.2522345 673.94571289 -34.98574829 674.80517578 C-34.14792527 677.50193912 -33.3026895 680.19630946 -32.45703125 682.890625 C-31.87000552 684.77375888 -31.28325715 686.65697923 -30.69677734 688.5402832 C-27.22169174 699.67756553 -23.68075064 710.79273517 -20.08203125 721.890625 C-14.73312085 738.39692844 -9.44634506 754.85501912 -5.26953125 771.703125 C-5.01969482 772.70915771 -4.7698584 773.71519043 -4.51245117 774.75170898 C-3.44559905 779.08107297 -2.40331874 783.41170532 -1.44140625 787.765625 C0.50256353 796.27521241 2.95031287 802.22146835 10.2109375 807.390625 C13.94231582 809.49930679 17.89556382 810.61560412 22 811.79614258 C38.85667357 816.70125732 51.9988809 826.29798195 65.54296875 837.203125 C66.24518555 837.76644531 66.94740234 838.32976563 67.67089844 838.91015625 C73.31242748 843.44422578 78.90701067 848.034387 84.49609375 852.6328125 C136.35030584 897.48044798 136.35030584 897.48044798 200.54296875 913.203125 C213.9209487 911.31534338 224.36050453 906.17854813 233.54296875 896.203125 C240.50427605 886.86764553 243.07521426 877.66634674 242.91796875 866.140625 C242.91216797 865.08149902 242.90636719 864.02237305 242.90039062 862.93115234 C242.73578459 852.33082837 241.74482931 841.81464722 240.61083984 831.28100586 C238.91983336 815.33078274 239.54576801 802.34328139 245.16796875 787.265625 C249.71604337 774.84043709 249.00330044 765.58916026 246.22265625 752.71875 C244.40765688 743.33082221 245.58421614 736.46312964 250.23046875 728.203125 C261.46463032 713.62907755 279.25020315 703.54721968 295.35546875 695.140625 C304.36559683 690.24267747 311.06470358 684.12408588 314.54296875 674.203125 C315.33732509 668.84673605 314.93603152 666.23868589 311.76171875 661.8359375 C310.54184339 660.31729 309.30122581 658.81512711 308.04296875 657.328125 C307.07774292 656.14295288 307.07774292 656.14295288 306.09301758 654.93383789 C304.8216781 653.37467216 303.54299576 651.82145932 302.25634766 650.27490234 C300.18868772 647.77473674 298.21100476 645.21007803 296.23046875 642.640625 C292.97818598 638.58917018 289.40320189 634.9692958 285.69140625 631.33984375 C282.45032932 628.11644542 279.49814304 624.68711995 276.54296875 621.203125 C275.81722656 620.378125 275.09148438 619.553125 274.34375 618.703125 C266.6212091 609.74945439 259.98568666 600.10769836 253.54296875 590.203125 C252.93509521 589.27113281 252.93509521 589.27113281 252.31494141 588.3203125 C241.10563167 570.8248019 234.93364224 550.01247544 231.41796875 529.703125 C231.2590918 528.79715576 231.10021484 527.89118652 230.93652344 526.95776367 C230.40800391 523.71237559 229.9637676 520.46431611 229.54296875 517.203125 C229.45462769 516.54220856 229.36628662 515.88129211 229.27526855 515.2003479 C226.59252074 494.24189927 227.15589921 472.97918034 227.04296875 451.890625 C226.77751411 402.41896939 225.7620694 352.62904701 203.54296875 307.203125 C202.95926514 305.98858643 202.95926514 305.98858643 202.36376953 304.74951172 C180.97226989 260.66076339 143.35348076 228.88716426 99.54296875 208.203125 C98.8380127 207.86925781 98.13305664 207.53539062 97.40673828 207.19140625 C53.5419677 186.60483826 4.50338101 176.99250456 -43.83203125 176.953125 C-44.58792542 176.95245026 -45.34381958 176.95177551 -46.12261963 176.95108032 C-132.46773022 177.07183482 -213.88464007 208.05639035 -273.45703125 271.203125 Z M-68.55078125 270.0703125 C-72.87478085 274.82263282 -73.71187918 278.54387914 -73.61767578 285.02148438 C-73.34028069 288.78866145 -72.40348316 292.32334964 -71.39453125 295.953125 C-71.16685059 296.78618164 -70.93916992 297.61923828 -70.70458984 298.47753906 C-63.48747539 324.25778827 -52.73191423 349.14781298 -43.00178528 374.05380249 C-34.63613655 395.46810862 -26.36204204 416.90321263 -18.51953125 438.515625 C-18.1862381 439.43346771 -17.85294495 440.35131042 -17.509552 441.29696655 C-14.27589042 450.21680342 -11.0741188 459.13531131 -8.18139648 468.17260742 C-7.63190531 470.17105423 -7.63190531 470.17105423 -6.45703125 471.203125 C28.83907631 474.27656714 74.34091658 461.51754025 104.54296875 444.203125 C105.55101562 443.62949219 106.5590625 443.05585938 107.59765625 442.46484375 C114.28789486 438.43402132 119.91527167 433.59328941 125.54296875 428.203125 C126.31640625 427.50445312 127.08984375 426.80578125 127.88671875 426.0859375 C134.15120996 420.22906729 138.37102153 413.65956576 142.54296875 406.203125 C143.27 404.95208984 143.27 404.95208984 144.01171875 403.67578125 C155.21574623 383.1464504 154.30975691 359.10175483 148.76953125 337.13671875 C140.3905734 308.88656269 119.41758066 289.80688879 94.29296875 276.015625 C71.54723186 264.05609641 45.89185784 258.92857849 20.54296875 256.203125 C19.38152344 256.07164062 18.22007812 255.94015625 17.0234375 255.8046875 C-8.702989 253.36084211 -47.8730793 251.63012308 -68.55078125 270.0703125 Z M-32.84155273 489.69238281 C-34.19346185 489.86408443 -35.54600458 490.0308797 -36.89916992 490.19238281 C-55.68704482 492.38292971 -55.68704482 492.38292971 -70.70703125 502.890625 C-77.8460505 516.40376858 -73.16276985 531.7633237 -69.45703125 545.703125 C-68.62717375 548.89829221 -67.8059166 552.09565474 -66.984375 555.29296875 C-66.66798317 556.51734901 -66.66798317 556.51734901 -66.34519958 557.76646423 C-64.89168962 563.41759847 -63.52291085 569.08396034 -62.2109375 574.76953125 C-61.93894279 575.94754303 -61.93894279 575.94754303 -61.66145325 577.14935303 C-61.29623331 578.73266036 -60.93112585 580.31599365 -60.56613159 581.89935303 C-56.18535438 600.86405091 -50.99800128 619.54707158 -45.45703125 638.203125 C-39.08703691 636.62751056 -33.31756144 634.97666372 -27.58203125 631.765625 C-26.53273438 631.18941406 -25.4834375 630.61320313 -24.40234375 630.01953125 C-11.45723074 622.03613927 -5.49830824 609.61889855 -2.03515625 595.22265625 C4.72654475 559.90647467 -6.21810618 521.55735424 -17.45703125 488.203125 C-22.622981 488.203125 -27.72334884 489.03417947 -32.84155273 489.69238281 Z " fill="#010000" transform="translate(492.45703125,-0.203125)"/>
</svg>
